<svg width="22" height="22" viewBox="0 0 22 22" fill="none" xmlns="http://www.w3.org/2000/svg">
<path d="M11.6875 10.9998C11.6875 11.3795 11.3797 11.6873 11 11.6873C10.6203 11.6873 10.3125 11.3795 10.3125 10.9998C10.3125 10.6201 10.6203 10.3123 11 10.3123C11.3797 10.3123 11.6875 10.6201 11.6875 10.9998Z" fill="#555555"/>
<path d="M11.6875 16.9582C11.6875 17.3379 11.3797 17.6457 11 17.6457C10.6203 17.6457 10.3125 17.3379 10.3125 16.9582C10.3125 16.5785 10.6203 16.2707 11 16.2707C11.3797 16.2707 11.6875 16.5785 11.6875 16.9582Z" fill="#555555"/>
<path d="M11.6875 5.0415C11.6875 5.4212 11.3797 5.729 11 5.729C10.6203 5.729 10.3125 5.4212 10.3125 5.0415C10.3125 4.66181 10.6203 4.354 11 4.354C11.3797 4.354 11.6875 4.66181 11.6875 5.0415Z" fill="#555555"/>
<path d="M11.6875 10.9998C11.6875 11.3795 11.3797 11.6873 11 11.6873C10.6203 11.6873 10.3125 11.3795 10.3125 10.9998C10.3125 10.6201 10.6203 10.3123 11 10.3123C11.3797 10.3123 11.6875 10.6201 11.6875 10.9998Z" stroke="#555555" stroke-width="1.2" stroke-linecap="round" stroke-linejoin="round"/>
<path d="M11.6875 16.9582C11.6875 17.3379 11.3797 17.6457 11 17.6457C10.6203 17.6457 10.3125 17.3379 10.3125 16.9582C10.3125 16.5785 10.6203 16.2707 11 16.2707C11.3797 16.2707 11.6875 16.5785 11.6875 16.9582Z" stroke="#555555" stroke-width="1.2" stroke-linecap="round" stroke-linejoin="round"/>
<path d="M11.6875 5.0415C11.6875 5.4212 11.3797 5.729 11 5.729C10.6203 5.729 10.3125 5.4212 10.3125 5.0415C10.3125 4.66181 10.6203 4.354 11 4.354C11.3797 4.354 11.6875 4.66181 11.6875 5.0415Z" stroke="#555555" stroke-width="1.2" stroke-linecap="round" stroke-linejoin="round"/>
</svg>
