<svg width="20" height="20" viewBox="0 0 20 20" fill="none" xmlns="http://www.w3.org/2000/svg">
<path d="M8.125 10.0002C8.125 10.3453 7.84518 10.6252 7.5 10.6252C7.15482 10.6252 6.875 10.3453 6.875 10.0002C6.875 9.65498 7.15482 9.37516 7.5 9.37516C7.84518 9.37516 8.125 9.65498 8.125 10.0002Z" stroke="#949494" stroke-width="1.25" stroke-linecap="round" stroke-linejoin="round"/>
<path d="M13.125 10.0002C13.125 10.3453 12.8452 10.6252 12.5 10.6252C12.1548 10.6252 11.875 10.3453 11.875 10.0002C11.875 9.65498 12.1548 9.37516 12.5 9.37516C12.8452 9.37516 13.125 9.65498 13.125 10.0002Z" stroke="#949494" stroke-width="1.25" stroke-linecap="round" stroke-linejoin="round"/>
<path d="M8.125 15.4168C8.125 15.762 7.84518 16.0418 7.5 16.0418C7.15482 16.0418 6.875 15.762 6.875 15.4168C6.875 15.0717 7.15482 14.7918 7.5 14.7918C7.84518 14.7918 8.125 15.0717 8.125 15.4168Z" stroke="#949494" stroke-width="1.25" stroke-linecap="round" stroke-linejoin="round"/>
<path d="M13.125 15.4168C13.125 15.762 12.8452 16.0418 12.5 16.0418C12.1548 16.0418 11.875 15.762 11.875 15.4168C11.875 15.0717 12.1548 14.7918 12.5 14.7918C12.8452 14.7918 13.125 15.0717 13.125 15.4168Z" stroke="#949494" stroke-width="1.25" stroke-linecap="round" stroke-linejoin="round"/>
<path d="M8.125 4.5835C8.125 4.92867 7.84518 5.2085 7.5 5.2085C7.15482 5.2085 6.875 4.92867 6.875 4.5835C6.875 4.23832 7.15482 3.9585 7.5 3.9585C7.84518 3.9585 8.125 4.23832 8.125 4.5835Z" stroke="#949494" stroke-width="1.25" stroke-linecap="round" stroke-linejoin="round"/>
<path d="M13.125 4.5835C13.125 4.92867 12.8452 5.2085 12.5 5.2085C12.1548 5.2085 11.875 4.92867 11.875 4.5835C11.875 4.23832 12.1548 3.9585 12.5 3.9585C12.8452 3.9585 13.125 4.23832 13.125 4.5835Z" stroke="#949494" stroke-width="1.25" stroke-linecap="round" stroke-linejoin="round"/>
</svg>
