<svg width="32" height="32" viewBox="0 0 32 32" fill="none" xmlns="http://www.w3.org/2000/svg">
<rect width="32" height="32" rx="16" fill="#F8F8F8"/>
<path d="M22.0724 14.1668C22.4757 14.9905 22.6457 15.7018 22.6457 16.0002C22.6457 16.9168 21.0415 21.7293 15.9998 21.7293C15.3294 21.7293 14.7197 21.6442 14.1665 21.4945M11.4165 19.9131C9.91509 18.4471 9.354 16.5423 9.354 16.0002C9.354 15.0835 10.9582 10.271 15.9998 10.271C17.645 10.271 18.9241 10.7834 19.9009 11.5057" stroke="#555555" stroke-width="1.5" stroke-linecap="round" stroke-linejoin="round"/>
<path d="M22.6457 9.354L9.354 22.6457" stroke="#555555" stroke-width="1.5" stroke-linecap="round" stroke-linejoin="round"/>
<path d="M14.5416 17.4584C13.7361 16.653 13.7361 15.347 14.5416 14.5416C15.347 13.7361 16.653 13.7361 17.4584 14.5416" stroke="#555555" stroke-width="1.5" stroke-linecap="round" stroke-linejoin="round"/>
</svg>
