<svg width="22" height="22" viewBox="0 0 22 22" fill="none" xmlns="http://www.w3.org/2000/svg">
<path d="M17.0724 9.16683C17.4757 9.99051 17.6457 10.7018 17.6457 11.0002C17.6457 11.9168 16.0415 16.7293 10.9998 16.7293C10.3294 16.7293 9.7197 16.6442 9.1665 16.4945M6.4165 14.9131C4.91509 13.4471 4.354 11.5423 4.354 11.0002C4.354 10.0835 5.95817 5.271 10.9998 5.271C12.645 5.271 13.9241 5.78343 14.9009 6.50573" stroke="#555555" stroke-width="1.5" stroke-linecap="round" stroke-linejoin="round"/>
<path d="M17.6457 4.354L4.354 17.6457" stroke="#555555" stroke-width="1.5" stroke-linecap="round" stroke-linejoin="round"/>
<path d="M9.54159 12.4584C8.73614 11.653 8.73614 10.347 9.54159 9.54159C10.347 8.73614 11.653 8.73614 12.4584 9.54159" stroke="#555555" stroke-width="1.5" stroke-linecap="round" stroke-linejoin="round"/>
</svg>
